<?xml version="1.0" encoding="utf-8"?>
<!-- Generator: Adobe Illustrator 27.1.1, SVG Export Plug-In . SVG Version: 6.00 Build 0)  -->
<svg version="1.1" xmlns="http://www.w3.org/2000/svg" xmlns:xlink="http://www.w3.org/1999/xlink" x="0px" y="0px"
	 viewBox="0 0 18 18" style="enable-background:new 0 0 18 18;" xml:space="preserve">
<style type="text/css">
	.st0{fill:none;stroke:#000000;stroke-width:0.9168;stroke-linecap:round;stroke-linejoin:round;stroke-miterlimit:133.3333;}
	.st1{fill-rule:evenodd;clip-rule:evenodd;fill:none;stroke:#000000;stroke-width:1.2;stroke-miterlimit:10;}
	.st2{fill-rule:evenodd;clip-rule:evenodd;fill:none;stroke:#000000;stroke-width:2;stroke-miterlimit:10;}
</style>
<g id="加载">
	<path id="primary" class="st0" d="M0.8,6.8c0-1.6,1.4-2.9,3-2.9c1.1,0,2.1,0.5,2.6,1.4"/>
	<path id="primary-2" class="st0" d="M6.9,7.2c0,1.6-1.4,2.9-3,2.9c-1.1,0-2.1-0.5-2.6-1.4"/>
	<polyline id="primary-3" class="st0" points="4.6,5.3 6.5,5.3 6.5,3.5 	"/>
	<polyline id="primary-4" class="st0" points="3.1,8.7 1.1,8.7 1.1,10.5 	"/>
</g>
<g id="边框">
	<path class="st1" d="M9.3,8.1c-0.7,0,7.2,0,7.2,0c0.4,0,0.8,0.4,0.8,0.8v4c0,0.4-0.4,0.8-0.8,0.8H2.9c-0.4,0-0.8-0.4-0.8-0.8
		c0,0,0-1.4,0-0.7"/>
	<path class="st2" d="M15.1,8.3c0,0,0-1.5,0-0.9"/>
</g>
</svg>
